<?xml version="1.0" standalone="no"?>
<!DOCTYPE svg PUBLIC "-//W3C//DTD SVG 20010904//EN"
 "http://www.w3.org/TR/2001/REC-SVG-20010904/DTD/svg10.dtd">
<svg version="1.0" xmlns="http://www.w3.org/2000/svg"
 width="660.000000pt" height="660.000000pt" viewBox="0 0 660.000000 660.000000"
 preserveAspectRatio="xMidYMid meet">

<g transform="translate(0.000000,660.000000) scale(0.100000,-0.100000)"
fill="#000000" stroke="none">
<path d="M3396 6377 c-17 -19 -50 -61 -73 -94 l-43 -61 58 -53 c76 -69 184
-140 308 -199 107 -52 229 -89 244 -74 5 5 20 55 34 111 29 122 25 149 -35
216 -31 36 -66 59 -154 101 -133 64 -201 86 -263 86 -38 0 -50 -5 -76 -33z"/>
<path d="M3050 6215 c-22 -26 -4 -84 45 -147 25 -32 45 -66 45 -76 0 -36 12
-63 24 -53 12 10 56 9 74 -3 20 -12 13 -34 -10 -38 -30 -4 -53 -47 -44 -81 3
-15 13 -27 21 -27 11 0 14 -9 13 -31 -2 -20 3 -35 14 -42 22 -15 26 -10 37 47
5 26 17 56 26 66 18 20 18 20 32 0 12 -17 21 -19 54 -14 26 4 39 3 39 -5 0 -6
8 -11 18 -11 48 0 54 -48 12 -97 -16 -18 -30 -45 -30 -58 0 -14 -13 -39 -29
-57 -27 -30 -32 -32 -51 -20 -12 7 -23 12 -24 10 -2 -2 -7 -11 -13 -21 -8 -16
-18 -10 -79 53 -99 102 -115 132 -112 205 3 58 2 60 -23 63 -31 4 -41 -9 -58
-65 -8 -30 -25 -54 -57 -80 -25 -21 -55 -55 -66 -75 -25 -43 -56 -66 -188
-136 -263 -139 -322 -184 -382 -292 -17 -30 -53 -90 -81 -133 l-50 -77 -7
-158 c-7 -154 -17 -203 -56 -267 -28 -47 -84 -292 -84 -370 0 -34 81 -264 105
-298 7 -11 29 -30 48 -42 33 -23 34 -27 41 -101 9 -98 24 -134 72 -170 78 -60
84 -69 84 -126 -1 -35 -15 -92 -41 -168 -72 -207 -69 -187 -59 -438 5 -125 14
-245 19 -267 15 -58 13 -178 -4 -268 -8 -43 -15 -108 -15 -144 0 -36 -10 -150
-21 -252 -20 -176 -21 -189 -5 -236 16 -48 16 -58 -9 -240 -14 -104 -34 -235
-44 -290 -38 -196 -50 -323 -42 -437 5 -59 6 -118 4 -133 -5 -22 0 -28 33 -41
l39 -15 -4 -120 c-3 -104 -1 -123 14 -140 10 -10 24 -19 32 -19 8 0 13 -12 13
-31 0 -66 27 -85 175 -124 143 -37 275 -32 291 10 7 18 -57 165 -92 212 -34
44 -94 173 -94 199 0 12 7 24 15 28 12 4 15 23 15 83 0 50 8 101 20 142 12 36
27 120 35 188 8 67 26 196 39 285 14 90 29 190 33 223 l8 60 45 -1 c71 -1 279
-22 290 -29 6 -4 10 -69 10 -158 0 -185 21 -403 49 -517 16 -67 20 -102 15
-162 -6 -66 -4 -78 10 -84 14 -5 16 -24 16 -125 0 -140 -6 -133 131 -150 85
-10 94 -9 106 7 7 10 13 26 13 37 0 17 5 18 36 12 20 -3 73 -23 117 -43 l82
-37 165 0 c128 0 181 4 237 18 88 23 108 36 98 65 -10 33 -68 58 -180 77 -57
9 -123 28 -154 43 -68 33 -166 125 -157 148 3 9 -9 57 -28 107 -33 90 -34 95
-37 277 -8 397 1 670 21 695 9 11 28 13 89 8 74 -5 84 -3 232 46 85 28 186 56
226 62 94 14 157 45 161 79 2 14 -13 82 -33 150 -24 83 -39 161 -45 230 -10
123 -31 234 -64 340 -13 41 -27 104 -30 140 -4 36 -21 108 -37 160 -28 88 -75
303 -120 550 -11 58 -35 152 -54 210 -21 63 -41 153 -50 222 -9 64 -29 176
-45 250 -16 73 -34 183 -40 243 -6 61 -18 157 -27 215 -13 90 -14 127 -3 265
8 110 9 193 2 265 -9 99 -11 106 -38 125 -69 49 -76 61 -69 120 7 52 6 55 -20
67 -25 11 -26 12 -6 20 14 5 21 16 21 33 0 42 47 124 75 131 13 3 54 -2 91
-11 80 -20 128 -14 150 20 14 21 14 27 0 52 -8 16 -40 51 -72 78 -53 45 -57
47 -70 31 -11 -15 -21 -17 -57 -12 -136 21 -434 175 -545 282 l-54 52 16 30
15 30 -37 6 c-70 11 -149 7 -162 -9z m633 -616 c16 -25 0 -68 -27 -75 -49 -12
-89 34 -66 76 9 17 19 20 47 18 20 -2 40 -10 46 -19z"/>
</g>
</svg>
